<?xml version="1.0" standalone="no"?>
<!DOCTYPE svg PUBLIC "-//W3C//DTD SVG 20010904//EN"
 "http://www.w3.org/TR/2001/REC-SVG-20010904/DTD/svg10.dtd">
<svg version="1.0" xmlns="http://www.w3.org/2000/svg"
 width="128.000000pt" height="128.000000pt" viewBox="0 0 128.000000 128.000000"
 preserveAspectRatio="xMidYMid meet">
<metadata>
Created by potrace 1.16, written by Peter Selinger 2001-2019
</metadata>
<g transform="translate(0.000000,128.000000) scale(0.100000,-0.100000)"
fill="#000000" stroke="none">
<path d="M0 640 l0 -640 640 0 640 0 0 640 0 640 -640 0 -640 0 0 -640z m471
451 c18 -15 25 -32 29 -77 l5 -59 203 -5 204 -5 24 -28 c31 -36 31 -78 0 -114
l-24 -28 -204 -5 -203 -5 -3 -187 c-1 -104 1 -188 6 -188 5 0 64 23 133 50 92
38 132 50 155 45 40 -7 63 -33 71 -77 9 -61 -26 -87 -232 -169 -199 -79 -240
-87 -279 -50 l-26 24 0 424 0 424 25 24 c30 31 83 33 116 6z"/>
</g>
</svg>
